<svg xmlns="http://www.w3.org/2000/svg" version="1.1" xmlns:xlink="http://www.w3.org/1999/xlink" xmlns:svgjs="http://svgjs.com/svgjs" width="1440" height="560" preserveAspectRatio="none" viewBox="0 0 1440 560"><g mask="url(&quot;#SvgjsMask1231&quot;)" fill="none"><rect width="1440" height="560" x="0" y="0" fill="url(#SvgjsLinearGradient1232)"></rect><path d="M341 14L340 262" stroke-width="6" stroke="url(#SvgjsLinearGradient1233)" stroke-linecap="round" class="Down"></path><path d="M1185 105L1184 397" stroke-width="10" stroke="url(#SvgjsLinearGradient1234)" stroke-linecap="round" class="Up"></path><path d="M49 395L48 745" stroke-width="6" stroke="url(#SvgjsLinearGradient1234)" stroke-linecap="round" class="Up"></path><path d="M74 456L73 76" stroke-width="8" stroke="url(#SvgjsLinearGradient1234)" stroke-linecap="round" class="Up"></path><path d="M1289 117L1288 282" stroke-width="10" stroke="url(#SvgjsLinearGradient1234)" stroke-linecap="round" class="Up"></path><path d="M214 556L213 869" stroke-width="8" stroke="url(#SvgjsLinearGradient1233)" stroke-linecap="round" class="Down"></path><path d="M1377 114L1376 -67" stroke-width="6" stroke="url(#SvgjsLinearGradient1234)" stroke-linecap="round" class="Up"></path><path d="M138 498L137 299" stroke-width="6" stroke="url(#SvgjsLinearGradient1233)" stroke-linecap="round" class="Down"></path><path d="M515 250L514 458" stroke-width="6" stroke="url(#SvgjsLinearGradient1233)" stroke-linecap="round" class="Down"></path><path d="M745 366L744 662" stroke-width="10" stroke="url(#SvgjsLinearGradient1234)" stroke-linecap="round" class="Up"></path><path d="M988 463L987 233" stroke-width="8" stroke="url(#SvgjsLinearGradient1233)" stroke-linecap="round" class="Down"></path><path d="M359 360L358 644" stroke-width="6" stroke="url(#SvgjsLinearGradient1234)" stroke-linecap="round" class="Up"></path><path d="M855 518L854 789" stroke-width="6" stroke="url(#SvgjsLinearGradient1233)" stroke-linecap="round" class="Down"></path><path d="M1115 42L1114 456" stroke-width="10" stroke="url(#SvgjsLinearGradient1233)" stroke-linecap="round" class="Down"></path><path d="M215 527L214 195" stroke-width="10" stroke="url(#SvgjsLinearGradient1234)" stroke-linecap="round" class="Up"></path><path d="M587 8L586 301" stroke-width="10" stroke="url(#SvgjsLinearGradient1233)" stroke-linecap="round" class="Down"></path><path d="M1226 78L1225 -329" stroke-width="8" stroke="url(#SvgjsLinearGradient1234)" stroke-linecap="round" class="Up"></path><path d="M126 27L125 191" stroke-width="6" stroke="url(#SvgjsLinearGradient1234)" stroke-linecap="round" class="Up"></path><path d="M730 423L729 18" stroke-width="10" stroke="url(#SvgjsLinearGradient1234)" stroke-linecap="round" class="Up"></path><path d="M974 305L973 542" stroke-width="6" stroke="url(#SvgjsLinearGradient1233)" stroke-linecap="round" class="Down"></path><path d="M1150 169L1149 498" stroke-width="8" stroke="url(#SvgjsLinearGradient1234)" stroke-linecap="round" class="Up"></path><path d="M192 125L191 -175" stroke-width="8" stroke="url(#SvgjsLinearGradient1234)" stroke-linecap="round" class="Up"></path><path d="M279 23L278 -142" stroke-width="6" stroke="url(#SvgjsLinearGradient1234)" stroke-linecap="round" class="Up"></path><path d="M1302 454L1301 817" stroke-width="6" stroke="url(#SvgjsLinearGradient1234)" stroke-linecap="round" class="Up"></path><path d="M956 350L955 91" stroke-width="8" stroke="url(#SvgjsLinearGradient1233)" stroke-linecap="round" class="Down"></path><path d="M297 178L296 -54" stroke-width="10" stroke="url(#SvgjsLinearGradient1233)" stroke-linecap="round" class="Down"></path><path d="M644 171L643 460" stroke-width="8" stroke="url(#SvgjsLinearGradient1234)" stroke-linecap="round" class="Up"></path><path d="M784 60L783 -86" stroke-width="6" stroke="url(#SvgjsLinearGradient1233)" stroke-linecap="round" class="Down"></path><path d="M1261 483L1260 199" stroke-width="8" stroke="url(#SvgjsLinearGradient1234)" stroke-linecap="round" class="Up"></path><path d="M1071 523L1070 211" stroke-width="6" stroke="url(#SvgjsLinearGradient1233)" stroke-linecap="round" class="Down"></path><path d="M848 165L847 561" stroke-width="10" stroke="url(#SvgjsLinearGradient1233)" stroke-linecap="round" class="Down"></path><path d="M680 45L679 -320" stroke-width="6" stroke="url(#SvgjsLinearGradient1233)" stroke-linecap="round" class="Down"></path><path d="M1127 24L1126 -221" stroke-width="8" stroke="url(#SvgjsLinearGradient1234)" stroke-linecap="round" class="Up"></path><path d="M705 493L704 652" stroke-width="10" stroke="url(#SvgjsLinearGradient1233)" stroke-linecap="round" class="Down"></path><path d="M933 468L932 659" stroke-width="6" stroke="url(#SvgjsLinearGradient1233)" stroke-linecap="round" class="Down"></path><path d="M1410 549L1409 785" stroke-width="6" stroke="url(#SvgjsLinearGradient1233)" stroke-linecap="round" class="Down"></path></g><defs><mask id="SvgjsMask1231"><rect width="1440" height="560" fill="#ffffff"></rect></mask><linearGradient x1="50%" y1="0%" x2="50%" y2="100%" gradientUnits="userSpaceOnUse" id="SvgjsLinearGradient1232"><stop stop-color="#0e2a47" offset="0"></stop><stop stop-color="#00459e" offset="1"></stop></linearGradient><linearGradient x1="0%" y1="0%" x2="0%" y2="100%" id="SvgjsLinearGradient1233"><stop stop-color="rgba(28, 83, 142, 0)" offset="0"></stop><stop stop-color="#1c538e" offset="1"></stop></linearGradient><linearGradient x1="0%" y1="100%" x2="0%" y2="0%" id="SvgjsLinearGradient1234"><stop stop-color="rgba(28, 83, 142, 0)" offset="0"></stop><stop stop-color="#1c538e" offset="1"></stop></linearGradient></defs></svg>